<?xml version="1.0" encoding="UTF-8" standalone="no"?>
<!-- Created with Inkscape (http://www.inkscape.org/) -->

<svg
   xmlns:dc="http://purl.org/dc/elements/1.1/"
   xmlns:cc="http://creativecommons.org/ns#"
   xmlns:rdf="http://www.w3.org/1999/02/22-rdf-syntax-ns#"
   xmlns:svg="http://www.w3.org/2000/svg"
   xmlns="http://www.w3.org/2000/svg"
   xmlns:sodipodi="http://sodipodi.sourceforge.net/DTD/sodipodi-0.dtd"
   xmlns:inkscape="http://www.inkscape.org/namespaces/inkscape"
   id="svg2"
   version="1.1"
   inkscape:version="0.48.4 r9939"
   width="32.031708"
   height="33.969555"
   sodipodi:docname="date.svg">
  <metadata
     id="metadata8">
    <rdf:RDF>
      <cc:Work
         rdf:about="">
        <dc:format>image/svg+xml</dc:format>
        <dc:type
           rdf:resource="http://purl.org/dc/dcmitype/StillImage" />
        <dc:title />
      </cc:Work>
    </rdf:RDF>
  </metadata>
  <defs
     id="defs6" />
  <sodipodi:namedview
     pagecolor="#ffffff"
     bordercolor="#666666"
     borderopacity="1"
     objecttolerance="10"
     gridtolerance="10"
     guidetolerance="10"
     inkscape:pageopacity="0"
     inkscape:pageshadow="2"
     inkscape:window-width="1855"
     inkscape:window-height="1176"
     id="namedview4"
     showgrid="false"
     fit-margin-top="0"
     fit-margin-left="0"
     fit-margin-right="0"
     fit-margin-bottom="0"
     inkscape:zoom="3.3714286"
     inkscape:cx="69.483036"
     inkscape:cy="18.848644"
     inkscape:window-x="65"
     inkscape:window-y="24"
     inkscape:window-maximized="1"
     inkscape:current-layer="g3066" />
  <g
     transform="matrix(0.25142969,0,0,0.24677327,0,14.558117)"
     id="g3">
    <g
       transform="matrix(4.8999337,0,0,4.8999337,0,-48.737255)"
       id="g3066">
      <g
         id="g3007">
        <path
           id="path5"
           transform="matrix(0.81169568,0,0,0.82701175,0,-2.0932207)"
           d="M 6.84375 0 C 6.1649242 0 5.625 0.77185713 5.625 1.71875 L 5.625 6.875 C 5.625 7.8201775 6.1649242 8.5625 6.84375 8.5625 C 7.5225758 8.5625 8.09375 7.8201775 8.09375 6.875 L 8.09375 1.71875 C 8.09375 0.77185713 7.5225758 1.4802974e-16 6.84375 0 z M 15.9375 0 C 15.258674 0 14.6875 0.77185712 14.6875 1.71875 L 14.6875 6.875 C 14.6875 7.8201775 15.258674 8.59375 15.9375 8.59375 C 16.616326 8.59375 17.15625 7.8201775 17.15625 6.875 L 17.15625 1.71875 C 17.15625 0.77185712 16.616326 0 15.9375 0 z M 25.21875 0.0625 C 24.539924 0.0625 24 0.80310714 24 1.75 L 24 6.90625 C 24 7.8514274 24.539924 8.625 25.21875 8.625 C 25.897576 8.625 26.46875 7.8514274 26.46875 6.90625 L 26.46875 1.75 C 26.46875 0.80310714 25.897576 0.0625 25.21875 0.0625 z M 3.6875 4.9375 C 1.6473265 4.9375 -2.9605947e-16 6.5589009 0 8.5625 L 0 30.34375 C 0 32.34614 1.6473265 33.96875 3.6875 33.96875 L 28.34375 33.96875 C 30.383923 33.96875 32.03125 32.34614 32.03125 30.34375 L 32.03125 8.5625 C 32.03125 6.5589009 30.383923 4.9375 28.34375 4.9375 L 27.625 4.9375 L 27.625 7.375 C 27.625 8.7087174 26.547616 9.78125 25.1875 9.78125 C 23.827384 9.78125 22.71875 8.7087174 22.71875 7.375 L 22.71875 4.9375 C 22.142709 4.9375 20.295879 4.96875 18.46875 4.96875 L 18.46875 7.40625 C 18.46875 8.6308021 17.428363 9.812503 15.875 9.8125 C 14.60956 9.8124976 13.28125 8.6856313 13.28125 7.40625 L 13.28125 4.96875 L 9.25 4.96875 L 9.28125 7.375 C 9.2996645 8.708595 8.2038656 9.78125 6.84375 9.78125 C 5.4836344 9.78125 4.375 8.7087174 4.375 7.375 L 4.375 4.9375 L 3.6875 4.9375 z M 2.46875 13.40625 L 29.5625 13.40625 L 29.5625 30.34375 C 29.5625 31.010004 29.022576 31.5625 28.34375 31.5625 L 3.6875 31.5625 C 3.0086742 31.5625 2.46875 31.010004 2.46875 30.34375 L 2.46875 13.40625 z " />
        <g
           id="text3800"
           style="font-size:13.57551765px;font-style:normal;font-weight:normal;line-height:125%;letter-spacing:0px;word-spacing:0px;fill:#000000;fill-opacity:1;stroke:none;font-family:Sans">
          <path
             inkscape:connector-curvature="0"
             id="path3805"
             style="font-variant:normal;font-weight:bold;font-stretch:normal;font-family:Liberation Sans;-inkscape-font-specification:Liberation Sans Bold"
             d="m 5.8092434,21.078094 0,-1.29259 c 0.2121168,-0.464006 0.4706347,-0.881611 0.7755545,-1.252819 0.3049173,-0.375622 0.6230932,-0.718103 0.9545286,-1.027444 0.3358501,-0.313753 0.6672833,-0.603205 0.9943006,-0.868356 0.33143,-0.269561 0.6275103,-0.528079 0.8882419,-0.775554 0.2651424,-0.251884 0.4794692,-0.503774 0.642981,-0.755669 0.163502,-0.251883 0.245256,-0.519239 0.245261,-0.802069 -5e-6,-0.41539 -0.103854,-0.722518 -0.3115477,-0.921385 -0.2077028,-0.198852 -0.5126213,-0.298282 -0.9147565,-0.29829 -0.3977236,8e-6 -0.7026422,0.108276 -0.9147566,0.324804 -0.207701,0.212125 -0.3424838,0.532511 -0.4043489,0.961158 L 5.8887875,14.263821 c 0.044191,-0.366779 0.1347822,-0.71147 0.2717755,-1.034073 0.1369915,-0.322587 0.3314323,-0.60541 0.583323,-0.84847 0.2563069,-0.243042 0.5744828,-0.433064 0.9545286,-0.570065 0.3844601,-0.141402 0.8418379,-0.212108 1.3721348,-0.212118 0.5037747,10e-6 0.9501046,0.05967 1.3389916,0.178974 0.388876,0.114907 0.715891,0.285042 0.981043,0.510408 0.265141,0.225383 0.46621,0.501578 0.603209,0.828584 0.136986,0.322603 0.205482,0.691599 0.205489,1.106988 -7e-6,0.437499 -0.08618,0.833009 -0.258518,1.186532 -0.172352,0.353534 -0.393308,0.680549 -0.662867,0.981043 -0.269572,0.296085 -0.570071,0.574489 -0.901499,0.835213 -0.32702,0.260731 -0.6451955,0.51483 -0.954529,0.762297 -0.3093418,0.247473 -0.5921648,0.497153 -0.8484699,0.74904 -0.2518925,0.251891 -0.4397046,0.521457 -0.563437,0.808698 l 4.3351509,0 0,1.531222 -6.5358696,0" />
          <path
             inkscape:connector-curvature="0"
             id="path3807"
             style="font-variant:normal;font-weight:bold;font-stretch:normal;font-family:Liberation Sans;-inkscape-font-specification:Liberation Sans Bold"
             d="m 19.954827,18.486284 c -7e-6,0.424237 -0.07071,0.80649 -0.212118,1.14676 -0.136999,0.335854 -0.344697,0.623096 -0.623095,0.861727 -0.27841,0.238633 -0.62531,0.422026 -1.040701,0.55018 -0.410983,0.123735 -0.890456,0.185603 -1.438422,0.185603 -0.609841,0 -1.124667,-0.07734 -1.54448,-0.232004 -0.415399,-0.154668 -0.757879,-0.357947 -1.027444,-0.609837 -0.265148,-0.256308 -0.466217,-0.54576 -0.603209,-0.868356 -0.132574,-0.322594 -0.218747,-0.649608 -0.258518,-0.981043 l 1.8958,-0.165717 c 0.02651,0.198862 0.07512,0.382255 0.14583,0.550179 0.07512,0.16351 0.174553,0.304921 0.298291,0.424235 0.123732,0.119318 0.273982,0.212119 0.450749,0.278405 0.181181,0.06187 0.393298,0.0928 0.636353,0.0928 0.446326,1e-6 0.793226,-0.110476 1.040701,-0.331434 0.247465,-0.220953 0.3712,-0.559015 0.371205,-1.014186 -5e-6,-0.278401 -0.05966,-0.501566 -0.178974,-0.669496 -0.114901,-0.167923 -0.262942,-0.296077 -0.444121,-0.384463 -0.176769,-0.0928 -0.369,-0.154665 -0.576694,-0.185603 -0.207702,-0.03093 -0.404352,-0.0464 -0.589952,-0.0464 l -0.649609,0 0,-1.504709 0.609837,0 c 0.1856,6e-6 0.373412,-0.01767 0.563437,-0.05303 0.194437,-0.03535 0.368992,-0.09942 0.523665,-0.192231 0.154665,-0.0928 0.280609,-0.22095 0.377835,-0.384463 0.09721,-0.16792 0.145825,-0.380038 0.14583,-0.636353 -5e-6,-0.384455 -0.108273,-0.684955 -0.324805,-0.901499 -0.212121,-0.220948 -0.523669,-0.331425 -0.934642,-0.331433 -0.384466,8e-6 -0.696014,0.106066 -0.934643,0.318176 -0.234215,0.212125 -0.368998,0.512624 -0.404349,0.901499 L 13.365928,14.17102 c 0.05303,-0.437485 0.172345,-0.817529 0.357948,-1.140132 0.190021,-0.322587 0.426443,-0.589943 0.709268,-0.802069 0.28724,-0.212108 0.616464,-0.368987 0.987672,-0.470636 0.371202,-0.106049 0.764503,-0.159078 1.179903,-0.159088 0.547966,10e-6 1.018601,0.0663 1.411907,0.19886 0.393296,0.132583 0.715891,0.311557 0.967786,0.536923 0.251883,0.225383 0.437486,0.48832 0.556808,0.788812 0.11931,0.300507 0.178968,0.620892 0.178974,0.961157 -6e-6,0.273992 -0.03978,0.5303 -0.119316,0.768926 -0.07955,0.234219 -0.201076,0.446336 -0.364577,0.636352 -0.159094,0.185608 -0.364582,0.346906 -0.616466,0.483893 -0.251895,0.132578 -0.550185,0.232008 -0.89487,0.29829 l 0,0.02651 c 0.384457,0.0442 0.7181,0.132578 1.000929,0.265147 0.282817,0.128158 0.51482,0.289456 0.69601,0.483893 0.181177,0.194445 0.31596,0.4154 0.404349,0.662867 0.08837,0.243054 0.132567,0.501572 0.132574,0.775554" />
        </g>
      </g>
    </g>
  </g>
</svg>
